# xmcd
#
# Track frame offsets:
#	150
#	15742
#	31650
#	47835
#	61905
#	76412
#	78857
#	98000
#	113947
#	130015
#	150172
#	154597
#	173137
#	190415
#	209052
#	226572
#
# Disc length: 3240 seconds
#
# Revision: 1
# Processed by: cddbd v1.4PL0 Copyright (c) Steve Scherf et al.
# Submitted via: EasyCDDAExtractor 5.1.0
#
DISCID=b60ca610
DTITLE=code82 - 3 version
DYEAR=2003
DGENRE=Rap, Hiphop
TTITLE0=놀자
TTITLE1=색색색
TTITLE2=차빼
TTITLE3=내가 이상하냐
TTITLE4=대리만족
TTITLE5=Skip
TTITLE6=반성문
TTITLE7=돼지털
TTITLE8=나
TTITLE9=no war
TTITLE10=Skip
TTITLE11=드라마
TTITLE12=code 82
TTITLE13=독백
TTITLE14=아이스크림
TTITLE15=내 멋대로 살아라
EXTD=
EXTT0=
EXTT1=
EXTT2=
EXTT3=
EXTT4=
EXTT5=
EXTT6=
EXTT7=
EXTT8=
EXTT9=
EXTT10=
EXTT11=
EXTT12=
EXTT13=
EXTT14=
EXTT15=
PLAYORDER=
